<?xml version="1.0" standalone="no"?>
<!DOCTYPE svg PUBLIC "-//W3C//DTD SVG 20010904//EN"
 "http://www.w3.org/TR/2001/REC-SVG-20010904/DTD/svg10.dtd">
<svg version="1.0" xmlns="http://www.w3.org/2000/svg"
 width="500.000000pt" height="500.000000pt" viewBox="0 0 500.000000 500.000000"
 preserveAspectRatio="xMidYMid meet">
<metadata>
Created by potrace 1.14, written by Peter Selinger 2001-2017
</metadata>
<g transform="translate(0.000000,500.000000) scale(0.100000,-0.100000)"
fill="#000000" stroke="none">
<path d="M3465 4869 c-169 -29 -274 -63 -395 -126 -285 -150 -506 -415 -616
-741 -14 -42 -27 -84 -29 -92 -2 -8 -8 -35 -14 -60 -14 -63 -29 -163 -36 -243
l-6 -67 327 2 327 3 4 30 c2 17 11 62 20 100 59 252 211 430 433 506 93 31
267 35 370 8 213 -57 354 -194 427 -414 23 -70 26 -97 27 -215 1 -181 -21
-262 -109 -400 -21 -33 -584 -763 -670 -868 -18 -22 -273 -349 -305 -392 -14
-18 -59 -76 -101 -129 -41 -53 -99 -127 -129 -166 -30 -38 -158 -203 -284
-365 -127 -162 -234 -299 -238 -305 -5 -5 -28 -35 -53 -66 l-45 -56 0 -317 0
-316 1295 0 c1226 0 1295 1 1296 18 0 24 0 568 0 615 l-1 37 -866 0 -866 0 68
88 c37 48 79 101 93 118 22 26 206 264 266 343 21 28 361 465 401 516 13 17
131 170 263 340 132 171 269 346 304 390 86 109 157 216 201 303 34 68 89 217
100 272 3 14 10 52 17 85 14 68 18 352 6 435 -4 30 -10 69 -12 85 -2 17 -15
68 -28 115 -112 400 -419 730 -799 861 -51 17 -97 32 -103 33 -5 2 -35 8 -65
14 -30 6 -68 14 -85 17 -52 10 -338 13 -390 4z"/>
<path d="M1409 3535 c-2 -1 -26 -6 -54 -9 -216 -29 -463 -161 -605 -325 -25
-28 -48 -51 -52 -51 -4 0 -8 79 -8 175 l0 175 -325 0 -325 0 0 -1660 0 -1660
325 0 325 0 1 1025 c1 564 2 1033 3 1043 1 9 5 43 10 74 4 32 7 59 6 60 -1 2
11 37 26 78 45 126 91 188 208 282 179 143 430 167 651 62 22 -10 42 -21 45
-24 3 -3 17 -11 31 -18 15 -8 38 -24 51 -37 l26 -24 18 22 c11 12 57 69 104
127 46 58 89 110 95 116 5 6 24 28 40 49 17 21 56 70 89 109 32 39 67 82 78
96 12 14 28 33 36 42 19 22 8 36 -68 88 -139 94 -276 151 -430 176 -39 7 -296
15 -301 9z"/>
</g>
</svg>
