<svg width="37" height="37" viewBox="0 0 37 37" fill="none" xmlns="http://www.w3.org/2000/svg">
<path d="M18.5 0C8.2826 0 0 8.2826 0 18.5C0 28.7174 8.2826 37 18.5 37C28.7174 37 37 28.7174 37 18.5C37 8.2826 28.7174 0 18.5 0ZM13.9714 26.1679H10.2251V14.112H13.9714V26.1679ZM12.0751 12.632C10.8919 12.632 10.1268 11.7937 10.1268 10.757C10.1268 9.69901 10.915 8.88578 12.1233 8.88578C13.3316 8.88578 14.0716 9.69901 14.0947 10.757C14.0947 11.7937 13.3316 12.632 12.0751 12.632ZM27.6536 26.1679H23.9074V19.4867C23.9074 17.9315 23.364 16.8755 22.0092 16.8755C20.9744 16.8755 20.3596 17.5904 20.0879 18.2784C19.9877 18.5231 19.9627 18.87 19.9627 19.2149V26.1659H16.2145V17.9566C16.2145 16.4515 16.1663 15.1931 16.1162 14.1101H19.371L19.5426 15.7847H19.6177C20.111 14.9985 21.3193 13.8384 23.3408 13.8384C25.8056 13.8384 27.6536 15.4899 27.6536 19.0396V26.1679V26.1679Z" fill="white"/>
</svg>
