<svg width="38" height="37" viewBox="0 0 38 37" fill="none" xmlns="http://www.w3.org/2000/svg">
<circle cx="19.2912" cy="18.4977" r="18.4977" fill="white"/>
<path d="M9.33094 15.2951L19.4373 20.5513C19.5387 20.604 19.6513 20.6315 19.7655 20.6315C19.8798 20.6315 19.9924 20.604 20.0938 20.5513L30.2001 15.296V24.4263C30.2002 25.2138 29.8989 25.9714 29.3581 26.5438C28.8173 27.1162 28.0779 27.4599 27.2917 27.5045L27.1172 27.5092H12.4139C11.6264 27.5093 10.8688 27.208 10.2964 26.6672C9.72401 26.1264 9.38027 25.387 9.33569 24.6008L9.33094 24.4263V15.2951ZM12.4139 10.4344H27.1172C27.9047 10.4344 28.6623 10.7357 29.2347 11.2765C29.8071 11.8173 30.1508 12.5566 30.1954 13.3429L30.2001 13.5174V13.6919L19.7655 19.1179L9.33094 13.6919V13.5174C9.33089 12.7299 9.63218 11.9723 10.173 11.3999C10.7138 10.8275 11.4531 10.4838 12.2393 10.4392L12.4139 10.4344H27.1172H12.4139Z" fill="#492468"/>
</svg>
